<?xml version="1.0" encoding="utf-8" standalone="no"?>
<!DOCTYPE svg PUBLIC "-//W3C//DTD SVG 1.1//EN"
  "http://www.w3.org/Graphics/SVG/1.1/DTD/svg11.dtd">
<!-- Created with matplotlib (https://matplotlib.org/) -->
<svg height="256.98196pt" version="1.1" viewBox="0 0 265.638132 256.98196" width="265.638132pt" xmlns="http://www.w3.org/2000/svg" xmlns:xlink="http://www.w3.org/1999/xlink">
 <metadata>
  <rdf:RDF xmlns:cc="http://creativecommons.org/ns#" xmlns:dc="http://purl.org/dc/elements/1.1/" xmlns:rdf="http://www.w3.org/1999/02/22-rdf-syntax-ns#">
   <cc:Work>
    <dc:type rdf:resource="http://purl.org/dc/dcmitype/StillImage"/>
    <dc:date>2020-10-04T23:09:13.143186</dc:date>
    <dc:format>image/svg+xml</dc:format>
    <dc:creator>
     <cc:Agent>
      <dc:title>Matplotlib v3.3.2, https://matplotlib.org/</dc:title>
     </cc:Agent>
    </dc:creator>
   </cc:Work>
  </rdf:RDF>
 </metadata>
 <defs>
  <style type="text/css">*{stroke-linecap:butt;stroke-linejoin:round;}</style>
 </defs>
 <g id="figure_1">
  <g id="patch_1">
   <path d="M 0 256.98196 
L 265.638132 256.98196 
L 265.638132 0 
L 0 0 
z
" style="fill:none;"/>
  </g>
  <g id="patch_2">
   <path d="M 7.2 239.758125 
L 224.64 239.758125 
L 224.64 22.318125 
L 7.2 22.318125 
z
" style="fill:#ffffff;"/>
  </g>
  <g id="pane3d_1">
   <g id="patch_3">
    <path d="M 23.61822 186.144389 
L 95.424009 125.955353 
L 94.42584 39.152003 
L 19.183773 94.060236 
" style="fill:#f2f2f2;opacity:0.5;stroke:#f2f2f2;stroke-linejoin:miter;"/>
   </g>
  </g>
  <g id="pane3d_2">
   <g id="patch_4">
    <path d="M 95.424009 125.955353 
L 210.64668 159.446035 
L 214.758571 69.652843 
L 94.42584 39.152003 
" style="fill:#e6e6e6;opacity:0.5;stroke:#e6e6e6;stroke-linejoin:miter;"/>
   </g>
  </g>
  <g id="pane3d_3">
   <g id="patch_5">
    <path d="M 23.61822 186.144389 
L 145.759879 226.035855 
L 210.64668 159.446035 
L 95.424009 125.955353 
" style="fill:#ececec;opacity:0.5;stroke:#ececec;stroke-linejoin:miter;"/>
   </g>
  </g>
  <g id="axis3d_1">
   <g id="line2d_1">
    <path d="M 23.61822 186.144389 
L 145.759879 226.035855 
" style="fill:none;stroke:#000000;stroke-linecap:square;stroke-width:0.8;"/>
   </g>
   <g id="text_1">
    <!-- X [m] -->
    <g transform="translate(52.795844 239.245036)rotate(-341.912962)scale(0.1 -0.1)">
     <defs>
      <path d="M 6.296875 72.90625 
L 16.890625 72.90625 
L 35.015625 45.796875 
L 53.21875 72.90625 
L 63.8125 72.90625 
L 40.375 37.890625 
L 65.375 0 
L 54.78125 0 
L 34.28125 31 
L 13.625 0 
L 2.984375 0 
L 29 38.921875 
z
" id="DejaVuSans-88"/>
      <path id="DejaVuSans-32"/>
      <path d="M 8.59375 75.984375 
L 29.296875 75.984375 
L 29.296875 69 
L 17.578125 69 
L 17.578125 -6.203125 
L 29.296875 -6.203125 
L 29.296875 -13.1875 
L 8.59375 -13.1875 
z
" id="DejaVuSans-91"/>
      <path d="M 52 44.1875 
Q 55.375 50.25 60.0625 53.125 
Q 64.75 56 71.09375 56 
Q 79.640625 56 84.28125 50.015625 
Q 88.921875 44.046875 88.921875 33.015625 
L 88.921875 0 
L 79.890625 0 
L 79.890625 32.71875 
Q 79.890625 40.578125 77.09375 44.375 
Q 74.3125 48.1875 68.609375 48.1875 
Q 61.625 48.1875 57.5625 43.546875 
Q 53.515625 38.921875 53.515625 30.90625 
L 53.515625 0 
L 44.484375 0 
L 44.484375 32.71875 
Q 44.484375 40.625 41.703125 44.40625 
Q 38.921875 48.1875 33.109375 48.1875 
Q 26.21875 48.1875 22.15625 43.53125 
Q 18.109375 38.875 18.109375 30.90625 
L 18.109375 0 
L 9.078125 0 
L 9.078125 54.6875 
L 18.109375 54.6875 
L 18.109375 46.1875 
Q 21.1875 51.21875 25.484375 53.609375 
Q 29.78125 56 35.6875 56 
Q 41.65625 56 45.828125 52.96875 
Q 50 49.953125 52 44.1875 
z
" id="DejaVuSans-109"/>
      <path d="M 30.421875 75.984375 
L 30.421875 -13.1875 
L 9.71875 -13.1875 
L 9.71875 -6.203125 
L 21.390625 -6.203125 
L 21.390625 69 
L 9.71875 69 
L 9.71875 75.984375 
z
" id="DejaVuSans-93"/>
     </defs>
     <use xlink:href="#DejaVuSans-88"/>
     <use x="68.505859" xlink:href="#DejaVuSans-32"/>
     <use x="100.292969" xlink:href="#DejaVuSans-91"/>
     <use x="139.306641" xlink:href="#DejaVuSans-109"/>
     <use x="236.71875" xlink:href="#DejaVuSans-93"/>
    </g>
   </g>
   <g id="Line3DCollection_1">
    <path d="M 34.753953 189.78132 
L 105.971161 129.020994 
L 105.419646 41.938612 
" style="fill:none;stroke:#b0b0b0;stroke-width:0.8;"/>
    <path d="M 58.049318 197.389586 
L 128.007758 135.426163 
L 128.403161 47.764263 
" style="fill:none;stroke:#b0b0b0;stroke-width:0.8;"/>
    <path d="M 81.828499 205.155867 
L 150.463749 141.953232 
L 151.843183 53.705626 
" style="fill:none;stroke:#b0b0b0;stroke-width:0.8;"/>
    <path d="M 106.106728 213.085136 
L 173.351221 148.605717 
L 175.753449 59.766181 
" style="fill:none;stroke:#b0b0b0;stroke-width:0.8;"/>
    <path d="M 130.899882 221.18258 
L 196.682731 155.387266 
L 200.148252 65.949553 
" style="fill:none;stroke:#b0b0b0;stroke-width:0.8;"/>
   </g>
   <g id="xtick_1">
    <g id="line2d_2">
     <path d="M 35.374192 189.252152 
L 33.51081 190.841931 
" style="fill:none;stroke:#000000;stroke-linecap:square;stroke-width:0.8;"/>
    </g>
    <g id="text_2">
     <!-- −0.4 -->
     <g transform="translate(15.081771 213.135214)scale(0.1 -0.1)">
      <defs>
       <path d="M 10.59375 35.5 
L 73.1875 35.5 
L 73.1875 27.203125 
L 10.59375 27.203125 
z
" id="DejaVuSans-8722"/>
       <path d="M 31.78125 66.40625 
Q 24.171875 66.40625 20.328125 58.90625 
Q 16.5 51.421875 16.5 36.375 
Q 16.5 21.390625 20.328125 13.890625 
Q 24.171875 6.390625 31.78125 6.390625 
Q 39.453125 6.390625 43.28125 13.890625 
Q 47.125 21.390625 47.125 36.375 
Q 47.125 51.421875 43.28125 58.90625 
Q 39.453125 66.40625 31.78125 66.40625 
z
M 31.78125 74.21875 
Q 44.046875 74.21875 50.515625 64.515625 
Q 56.984375 54.828125 56.984375 36.375 
Q 56.984375 17.96875 50.515625 8.265625 
Q 44.046875 -1.421875 31.78125 -1.421875 
Q 19.53125 -1.421875 13.0625 8.265625 
Q 6.59375 17.96875 6.59375 36.375 
Q 6.59375 54.828125 13.0625 64.515625 
Q 19.53125 74.21875 31.78125 74.21875 
z
" id="DejaVuSans-48"/>
       <path d="M 10.6875 12.40625 
L 21 12.40625 
L 21 0 
L 10.6875 0 
z
" id="DejaVuSans-46"/>
       <path d="M 37.796875 64.3125 
L 12.890625 25.390625 
L 37.796875 25.390625 
z
M 35.203125 72.90625 
L 47.609375 72.90625 
L 47.609375 25.390625 
L 58.015625 25.390625 
L 58.015625 17.1875 
L 47.609375 17.1875 
L 47.609375 0 
L 37.796875 0 
L 37.796875 17.1875 
L 4.890625 17.1875 
L 4.890625 26.703125 
z
" id="DejaVuSans-52"/>
      </defs>
      <use xlink:href="#DejaVuSans-8722"/>
      <use x="83.789062" xlink:href="#DejaVuSans-48"/>
      <use x="147.412109" xlink:href="#DejaVuSans-46"/>
      <use x="179.199219" xlink:href="#DejaVuSans-52"/>
     </g>
    </g>
   </g>
   <g id="xtick_2">
    <g id="line2d_3">
     <path d="M 58.659103 196.849488 
L 56.827099 198.472127 
" style="fill:none;stroke:#000000;stroke-linecap:square;stroke-width:0.8;"/>
    </g>
    <g id="text_3">
     <!-- −0.2 -->
     <g transform="translate(38.40672 220.941213)scale(0.1 -0.1)">
      <defs>
       <path d="M 19.1875 8.296875 
L 53.609375 8.296875 
L 53.609375 0 
L 7.328125 0 
L 7.328125 8.296875 
Q 12.9375 14.109375 22.625 23.890625 
Q 32.328125 33.6875 34.8125 36.53125 
Q 39.546875 41.84375 41.421875 45.53125 
Q 43.3125 49.21875 43.3125 52.78125 
Q 43.3125 58.59375 39.234375 62.25 
Q 35.15625 65.921875 28.609375 65.921875 
Q 23.96875 65.921875 18.8125 64.3125 
Q 13.671875 62.703125 7.8125 59.421875 
L 7.8125 69.390625 
Q 13.765625 71.78125 18.9375 73 
Q 24.125 74.21875 28.421875 74.21875 
Q 39.75 74.21875 46.484375 68.546875 
Q 53.21875 62.890625 53.21875 53.421875 
Q 53.21875 48.921875 51.53125 44.890625 
Q 49.859375 40.875 45.40625 35.40625 
Q 44.1875 33.984375 37.640625 27.21875 
Q 31.109375 20.453125 19.1875 8.296875 
z
" id="DejaVuSans-50"/>
      </defs>
      <use xlink:href="#DejaVuSans-8722"/>
      <use x="83.789062" xlink:href="#DejaVuSans-48"/>
      <use x="147.412109" xlink:href="#DejaVuSans-46"/>
      <use x="179.199219" xlink:href="#DejaVuSans-50"/>
     </g>
    </g>
   </g>
   <g id="xtick_3">
    <g id="line2d_4">
     <path d="M 82.427261 204.604498 
L 80.628348 206.261024 
" style="fill:none;stroke:#000000;stroke-linecap:square;stroke-width:0.8;"/>
    </g>
    <g id="text_4">
     <!-- 0.0 -->
     <g transform="translate(66.408199 228.910088)scale(0.1 -0.1)">
      <use xlink:href="#DejaVuSans-48"/>
      <use x="63.623047" xlink:href="#DejaVuSans-46"/>
      <use x="95.410156" xlink:href="#DejaVuSans-48"/>
     </g>
    </g>
   </g>
   <g id="xtick_4">
    <g id="line2d_5">
     <path d="M 106.693868 212.522139 
L 104.929846 214.213626 
" style="fill:none;stroke:#000000;stroke-linecap:square;stroke-width:0.8;"/>
    </g>
    <g id="text_5">
     <!-- 0.2 -->
     <g transform="translate(90.721915 237.04699)scale(0.1 -0.1)">
      <use xlink:href="#DejaVuSans-48"/>
      <use x="63.623047" xlink:href="#DejaVuSans-46"/>
      <use x="95.410156" xlink:href="#DejaVuSans-50"/>
     </g>
    </g>
   </g>
   <g id="xtick_5">
    <g id="line2d_6">
     <path d="M 131.474769 220.607584 
L 129.747531 222.335149 
" style="fill:none;stroke:#000000;stroke-linecap:square;stroke-width:0.8;"/>
    </g>
    <g id="text_6">
     <!-- 0.4 -->
     <g transform="translate(115.553759 245.357292)scale(0.1 -0.1)">
      <use xlink:href="#DejaVuSans-48"/>
      <use x="63.623047" xlink:href="#DejaVuSans-46"/>
      <use x="95.410156" xlink:href="#DejaVuSans-52"/>
     </g>
    </g>
   </g>
  </g>
  <g id="axis3d_2">
   <g id="line2d_7">
    <path d="M 210.64668 159.446035 
L 145.759879 226.035855 
" style="fill:none;stroke:#000000;stroke-linecap:square;stroke-width:0.8;"/>
   </g>
   <g id="text_7">
    <!-- Y [m] -->
    <g transform="translate(199.247665 230.803066)rotate(-45.742112)scale(0.1 -0.1)">
     <defs>
      <path d="M -0.203125 72.90625 
L 10.40625 72.90625 
L 30.609375 42.921875 
L 50.6875 72.90625 
L 61.28125 72.90625 
L 35.5 34.71875 
L 35.5 0 
L 25.59375 0 
L 25.59375 34.71875 
z
" id="DejaVuSans-89"/>
     </defs>
     <use xlink:href="#DejaVuSans-89"/>
     <use x="61.083984" xlink:href="#DejaVuSans-32"/>
     <use x="92.871094" xlink:href="#DejaVuSans-91"/>
     <use x="131.884766" xlink:href="#DejaVuSans-109"/>
     <use x="229.296875" xlink:href="#DejaVuSans-93"/>
    </g>
   </g>
   <g id="Line3DCollection_2">
    <path d="M 31.372152 85.165712 
L 35.212994 176.42542 
L 156.276263 215.243458 
" style="fill:none;stroke:#b0b0b0;stroke-width:0.8;"/>
    <path d="M 45.618594 74.769308 
L 48.783669 165.050211 
L 168.565718 202.631453 
" style="fill:none;stroke:#b0b0b0;stroke-width:0.8;"/>
    <path d="M 59.406522 64.707506 
L 61.936163 154.025529 
L 180.456906 190.428169 
" style="fill:none;stroke:#b0b0b0;stroke-width:0.8;"/>
    <path d="M 72.757722 54.964408 
L 74.689513 143.335418 
L 191.968879 178.614054 
" style="fill:none;stroke:#b0b0b0;stroke-width:0.8;"/>
    <path d="M 85.69262 45.525109 
L 87.061617 132.964875 
L 203.119491 167.170783 
" style="fill:none;stroke:#b0b0b0;stroke-width:0.8;"/>
   </g>
   <g id="xtick_6">
    <g id="line2d_8">
     <path d="M 155.256473 214.91647 
L 158.318459 215.898273 
" style="fill:none;stroke:#000000;stroke-linecap:square;stroke-width:0.8;"/>
    </g>
    <g id="text_8">
     <!-- −0.4 -->
     <g transform="translate(156.918306 236.154846)scale(0.1 -0.1)">
      <use xlink:href="#DejaVuSans-8722"/>
      <use x="83.789062" xlink:href="#DejaVuSans-48"/>
      <use x="147.412109" xlink:href="#DejaVuSans-46"/>
      <use x="179.199219" xlink:href="#DejaVuSans-52"/>
     </g>
    </g>
   </g>
   <g id="xtick_7">
    <g id="line2d_9">
     <path d="M 167.557556 202.315146 
L 170.584586 203.264867 
" style="fill:none;stroke:#000000;stroke-linecap:square;stroke-width:0.8;"/>
    </g>
    <g id="text_9">
     <!-- −0.2 -->
     <g transform="translate(169.005848 223.314395)scale(0.1 -0.1)">
      <use xlink:href="#DejaVuSans-8722"/>
      <use x="83.789062" xlink:href="#DejaVuSans-48"/>
      <use x="147.412109" xlink:href="#DejaVuSans-46"/>
      <use x="179.199219" xlink:href="#DejaVuSans-50"/>
     </g>
    </g>
   </g>
   <g id="xtick_8">
    <g id="line2d_10">
     <path d="M 179.46016 190.122027 
L 182.452873 191.041213 
" style="fill:none;stroke:#000000;stroke-linecap:square;stroke-width:0.8;"/>
    </g>
    <g id="text_10">
     <!-- 0.0 -->
     <g transform="translate(184.891235 210.890361)scale(0.1 -0.1)">
      <use xlink:href="#DejaVuSans-48"/>
      <use x="63.623047" xlink:href="#DejaVuSans-46"/>
      <use x="95.410156" xlink:href="#DejaVuSans-48"/>
     </g>
    </g>
   </g>
   <g id="xtick_9">
    <g id="line2d_11">
     <path d="M 190.983339 178.317595 
L 193.942366 179.207695 
" style="fill:none;stroke:#000000;stroke-linecap:square;stroke-width:0.8;"/>
    </g>
    <g id="text_11">
     <!-- 0.2 -->
     <g transform="translate(196.213543 198.86281)scale(0.1 -0.1)">
      <use xlink:href="#DejaVuSans-48"/>
      <use x="63.623047" xlink:href="#DejaVuSans-46"/>
      <use x="95.410156" xlink:href="#DejaVuSans-50"/>
     </g>
    </g>
   </g>
   <g id="xtick_10">
    <g id="line2d_12">
     <path d="M 202.14495 166.883555 
L 205.070916 167.745929 
" style="fill:none;stroke:#000000;stroke-linecap:square;stroke-width:0.8;"/>
    </g>
    <g id="text_12">
     <!-- 0.4 -->
     <g transform="translate(207.180203 187.21306)scale(0.1 -0.1)">
      <use xlink:href="#DejaVuSans-48"/>
      <use x="63.623047" xlink:href="#DejaVuSans-46"/>
      <use x="95.410156" xlink:href="#DejaVuSans-52"/>
     </g>
    </g>
   </g>
  </g>
  <g id="axis3d_3">
   <g id="line2d_13">
    <path d="M 210.64668 159.446035 
L 214.758571 69.652843 
" style="fill:none;stroke:#000000;stroke-linecap:square;stroke-width:0.8;"/>
   </g>
   <g id="text_13">
    <!-- Z [m] -->
    <g transform="translate(255.099347 124.029461)rotate(-87.378092)scale(0.1 -0.1)">
     <defs>
      <path d="M 5.609375 72.90625 
L 62.890625 72.90625 
L 62.890625 65.375 
L 16.796875 8.296875 
L 64.015625 8.296875 
L 64.015625 0 
L 4.5 0 
L 4.5 7.515625 
L 50.59375 64.59375 
L 5.609375 64.59375 
z
" id="DejaVuSans-90"/>
     </defs>
     <use xlink:href="#DejaVuSans-90"/>
     <use x="68.505859" xlink:href="#DejaVuSans-32"/>
     <use x="100.292969" xlink:href="#DejaVuSans-91"/>
     <use x="139.306641" xlink:href="#DejaVuSans-109"/>
     <use x="236.71875" xlink:href="#DejaVuSans-93"/>
    </g>
   </g>
   <g id="Line3DCollection_3">
    <path d="M 210.897812 153.961962 
L 95.362925 120.643365 
L 23.347816 180.529294 
" style="fill:none;stroke:#b0b0b0;stroke-width:0.8;"/>
    <path d="M 211.513251 140.522351 
L 95.213297 107.631272 
L 22.684914 166.763704 
" style="fill:none;stroke:#b0b0b0;stroke-width:0.8;"/>
    <path d="M 212.136975 126.901797 
L 95.06175 94.452384 
L 22.012746 152.805696 
" style="fill:none;stroke:#b0b0b0;stroke-width:0.8;"/>
    <path d="M 212.769154 113.096622 
L 94.908248 81.103474 
L 21.331116 138.651206 
" style="fill:none;stroke:#b0b0b0;stroke-width:0.8;"/>
    <path d="M 213.409961 99.103046 
L 94.752753 67.581229 
L 20.639823 124.296056 
" style="fill:none;stroke:#b0b0b0;stroke-width:0.8;"/>
    <path d="M 214.059573 84.917185 
L 94.595226 53.882251 
L 19.93866 109.735949 
" style="fill:none;stroke:#b0b0b0;stroke-width:0.8;"/>
   </g>
   <g id="xtick_11">
    <g id="line2d_14">
     <path d="M 209.928032 153.682291 
L 212.839685 154.52197 
" style="fill:none;stroke:#000000;stroke-linecap:square;stroke-width:0.8;"/>
    </g>
    <g id="text_14">
     <!-- 0.00 -->
     <g transform="translate(218.050187 158.970217)scale(0.1 -0.1)">
      <use xlink:href="#DejaVuSans-48"/>
      <use x="63.623047" xlink:href="#DejaVuSans-46"/>
      <use x="95.410156" xlink:href="#DejaVuSans-48"/>
      <use x="159.033203" xlink:href="#DejaVuSans-48"/>
     </g>
    </g>
   </g>
   <g id="xtick_12">
    <g id="line2d_15">
     <path d="M 210.536742 140.246182 
L 213.468611 141.075351 
" style="fill:none;stroke:#000000;stroke-linecap:square;stroke-width:0.8;"/>
    </g>
    <g id="text_15">
     <!-- 0.25 -->
     <g transform="translate(218.785163 145.563096)scale(0.1 -0.1)">
      <defs>
       <path d="M 10.796875 72.90625 
L 49.515625 72.90625 
L 49.515625 64.59375 
L 19.828125 64.59375 
L 19.828125 46.734375 
Q 21.96875 47.46875 24.109375 47.828125 
Q 26.265625 48.1875 28.421875 48.1875 
Q 40.625 48.1875 47.75 41.5 
Q 54.890625 34.8125 54.890625 23.390625 
Q 54.890625 11.625 47.5625 5.09375 
Q 40.234375 -1.421875 26.90625 -1.421875 
Q 22.3125 -1.421875 17.546875 -0.640625 
Q 12.796875 0.140625 7.71875 1.703125 
L 7.71875 11.625 
Q 12.109375 9.234375 16.796875 8.0625 
Q 21.484375 6.890625 26.703125 6.890625 
Q 35.15625 6.890625 40.078125 11.328125 
Q 45.015625 15.765625 45.015625 23.390625 
Q 45.015625 31 40.078125 35.4375 
Q 35.15625 39.890625 26.703125 39.890625 
Q 22.75 39.890625 18.8125 39.015625 
Q 14.890625 38.140625 10.796875 36.28125 
z
" id="DejaVuSans-53"/>
      </defs>
      <use xlink:href="#DejaVuSans-48"/>
      <use x="63.623047" xlink:href="#DejaVuSans-46"/>
      <use x="95.410156" xlink:href="#DejaVuSans-50"/>
      <use x="159.033203" xlink:href="#DejaVuSans-53"/>
     </g>
    </g>
   </g>
   <g id="xtick_13">
    <g id="line2d_16">
     <path d="M 211.153645 126.629251 
L 214.106012 127.44755 
" style="fill:none;stroke:#000000;stroke-linecap:square;stroke-width:0.8;"/>
    </g>
    <g id="text_16">
     <!-- 0.50 -->
     <g transform="translate(219.529997 131.976141)scale(0.1 -0.1)">
      <use xlink:href="#DejaVuSans-48"/>
      <use x="63.623047" xlink:href="#DejaVuSans-46"/>
      <use x="95.410156" xlink:href="#DejaVuSans-53"/>
      <use x="159.033203" xlink:href="#DejaVuSans-48"/>
     </g>
    </g>
   </g>
   <g id="xtick_14">
    <g id="line2d_17">
     <path d="M 211.778907 112.827821 
L 214.752059 113.634878 
" style="fill:none;stroke:#000000;stroke-linecap:square;stroke-width:0.8;"/>
    </g>
    <g id="text_17">
     <!-- 0.75 -->
     <g transform="translate(220.284889 118.205712)scale(0.1 -0.1)">
      <defs>
       <path d="M 8.203125 72.90625 
L 55.078125 72.90625 
L 55.078125 68.703125 
L 28.609375 0 
L 18.3125 0 
L 43.21875 64.59375 
L 8.203125 64.59375 
z
" id="DejaVuSans-55"/>
      </defs>
      <use xlink:href="#DejaVuSans-48"/>
      <use x="63.623047" xlink:href="#DejaVuSans-46"/>
      <use x="95.410156" xlink:href="#DejaVuSans-55"/>
      <use x="159.033203" xlink:href="#DejaVuSans-53"/>
     </g>
    </g>
   </g>
   <g id="xtick_15">
    <g id="line2d_18">
     <path d="M 212.412698 98.838118 
L 215.406931 99.63355 
" style="fill:none;stroke:#000000;stroke-linecap:square;stroke-width:0.8;"/>
    </g>
    <g id="text_18">
     <!-- 1.00 -->
     <g transform="translate(221.050044 104.248065)scale(0.1 -0.1)">
      <defs>
       <path d="M 12.40625 8.296875 
L 28.515625 8.296875 
L 28.515625 63.921875 
L 10.984375 60.40625 
L 10.984375 69.390625 
L 28.421875 72.90625 
L 38.28125 72.90625 
L 38.28125 8.296875 
L 54.390625 8.296875 
L 54.390625 0 
L 12.40625 0 
z
" id="DejaVuSans-49"/>
      </defs>
      <use xlink:href="#DejaVuSans-49"/>
      <use x="63.623047" xlink:href="#DejaVuSans-46"/>
      <use x="95.410156" xlink:href="#DejaVuSans-48"/>
      <use x="159.033203" xlink:href="#DejaVuSans-48"/>
     </g>
    </g>
   </g>
   <g id="xtick_16">
    <g id="line2d_19">
     <path d="M 213.055194 84.656264 
L 216.070808 85.439672 
" style="fill:none;stroke:#000000;stroke-linecap:square;stroke-width:0.8;"/>
    </g>
    <g id="text_19">
     <!-- 1.25 -->
     <g transform="translate(221.825673 90.099357)scale(0.1 -0.1)">
      <use xlink:href="#DejaVuSans-49"/>
      <use x="63.623047" xlink:href="#DejaVuSans-46"/>
      <use x="95.410156" xlink:href="#DejaVuSans-50"/>
      <use x="159.033203" xlink:href="#DejaVuSans-53"/>
     </g>
    </g>
   </g>
  </g>
  <g id="axes_1">
   <g id="Path3DCollection_1">
    <path clip-path="url(#p670317ccbc)" d="M 124.871642 139.320458 
C 126.168285 139.320458 127.411996 138.805296 128.328862 137.888431 
C 129.245727 136.971565 129.760889 135.727854 129.760889 134.431211 
C 129.760889 133.134567 129.245727 131.890856 128.328862 130.973991 
C 127.411996 130.057126 126.168285 129.541964 124.871642 129.541964 
C 123.574998 129.541964 122.331287 130.057126 121.414422 130.973991 
C 120.497557 131.890856 119.982395 133.134567 119.982395 134.431211 
C 119.982395 135.727854 120.497557 136.971565 121.414422 137.888431 
C 122.331287 138.805296 123.574998 139.320458 124.871642 139.320458 
z
" style="fill:#a50026;fill-opacity:0.3;stroke:#a50026;stroke-opacity:0.3;"/>
    <path clip-path="url(#p670317ccbc)" d="M 95.588411 120.572798 
C 96.714009 120.572798 97.793656 120.125593 98.589573 119.329676 
C 99.38549 118.533758 99.832695 117.454111 99.832695 116.328514 
C 99.832695 115.202917 99.38549 114.12327 98.589573 113.327353 
C 97.793656 112.531435 96.714009 112.084231 95.588411 112.084231 
C 94.462814 112.084231 93.383167 112.531435 92.58725 113.327353 
C 91.791332 114.12327 91.344128 115.202917 91.344128 116.328514 
C 91.344128 117.454111 91.791332 118.533758 92.58725 119.329676 
C 93.383167 120.125593 94.462814 120.572798 95.588411 120.572798 
z
" style="fill:#006837;fill-opacity:0.339135;stroke:#006837;stroke-opacity:0.339135;"/>
    <path clip-path="url(#p670317ccbc)" d="M 140.05268 150.076015 
C 141.303615 150.076015 142.503483 149.579014 143.388028 148.694469 
C 144.272573 147.809924 144.769574 146.610056 144.769574 145.359121 
C 144.769574 144.108186 144.272573 142.908318 143.388028 142.023773 
C 142.503483 141.139228 141.303615 140.642227 140.05268 140.642227 
C 138.801745 140.642227 137.601877 141.139228 136.717332 142.023773 
C 135.832787 142.908318 135.335786 144.108186 135.335786 145.359121 
C 135.335786 146.610056 135.832787 147.809924 136.717332 148.694469 
C 137.601877 149.579014 138.801745 150.076015 140.05268 150.076015 
z
" style="fill:#a50026;fill-opacity:0.38161;stroke:#a50026;stroke-opacity:0.38161;"/>
    <path clip-path="url(#p670317ccbc)" d="M 123.427823 144.203576 
C 124.550619 144.203576 125.627579 143.757484 126.421515 142.963548 
C 127.215451 142.169612 127.661542 141.092652 127.661542 139.969857 
C 127.661542 138.847061 127.215451 137.770102 126.421515 136.976165 
C 125.627579 136.182229 124.550619 135.736138 123.427823 135.736138 
C 122.305028 135.736138 121.228068 136.182229 120.434132 136.976165 
C 119.640196 137.770102 119.194105 138.847061 119.194105 139.969857 
C 119.194105 141.092652 119.640196 142.169612 120.434132 142.963548 
C 121.228068 143.757484 122.305028 144.203576 123.427823 144.203576 
z
" style="fill:#006837;fill-opacity:0.427315;stroke:#006837;stroke-opacity:0.427315;"/>
    <path clip-path="url(#p670317ccbc)" d="M 95.660903 134.630442 
C 96.767868 134.630442 97.829643 134.19064 98.612386 133.407898 
C 99.395128 132.625156 99.83493 131.56338 99.83493 130.456416 
C 99.83493 129.349451 99.395128 128.287675 98.612386 127.504933 
C 97.829643 126.722191 96.767868 126.282389 95.660903 126.282389 
C 94.553938 126.282389 93.492163 126.722191 92.709421 127.504933 
C 91.926678 128.287675 91.486877 129.349451 91.486877 130.456416 
C 91.486877 131.56338 91.926678 132.625156 92.709421 133.407898 
C 93.492163 134.19064 94.553938 134.630442 95.660903 134.630442 
z
" style="fill:#006837;fill-opacity:0.439512;stroke:#006837;stroke-opacity:0.439512;"/>
    <path clip-path="url(#p670317ccbc)" d="M 62.402004 162.31157 
C 63.705031 162.31157 64.954864 161.793872 65.876243 160.872493 
C 66.797622 159.951114 67.31532 158.701281 67.31532 157.398254 
C 67.31532 156.095228 66.797622 154.845394 65.876243 153.924015 
C 64.954864 153.002636 63.705031 152.484938 62.402004 152.484938 
C 61.098978 152.484938 59.849144 153.002636 58.927765 153.924015 
C 58.006386 154.845394 57.488688 156.095228 57.488688 157.398254 
C 57.488688 158.701281 58.006386 159.951114 58.927765 160.872493 
C 59.849144 161.793872 61.098978 162.31157 62.402004 162.31157 
z
" style="fill:#a50026;fill-opacity:0.471518;stroke:#a50026;stroke-opacity:0.471518;"/>
    <path clip-path="url(#p670317ccbc)" d="M 130.010031 172.639646 
C 131.332445 172.639646 132.600874 172.114245 133.535962 171.179157 
C 134.47105 170.24407 134.99645 168.975641 134.99645 167.653227 
C 134.99645 166.330813 134.47105 165.062384 133.535962 164.127296 
C 132.600874 163.192209 131.332445 162.666808 130.010031 162.666808 
C 128.687618 162.666808 127.419188 163.192209 126.484101 164.127296 
C 125.549013 165.062384 125.023612 166.330813 125.023612 167.653227 
C 125.023612 168.975641 125.549013 170.24407 126.484101 171.179157 
C 127.419188 172.114245 128.687618 172.639646 130.010031 172.639646 
z
" style="fill:#a50026;fill-opacity:0.548102;stroke:#a50026;stroke-opacity:0.548102;"/>
    <path clip-path="url(#p670317ccbc)" d="M 175.70548 89.035446 
C 176.563492 89.035446 177.386479 88.694554 177.993185 88.087847 
C 178.599892 87.481141 178.940784 86.658155 178.940784 85.800142 
C 178.940784 84.942129 178.599892 84.119143 177.993185 83.512437 
C 177.386479 82.90573 176.563492 82.564838 175.70548 82.564838 
C 174.847467 82.564838 174.024481 82.90573 173.417775 83.512437 
C 172.811068 84.119143 172.470176 84.942129 172.470176 85.800142 
C 172.470176 86.658155 172.811068 87.481141 173.417775 88.087847 
C 174.024481 88.694554 174.847467 89.035446 175.70548 89.035446 
z
" style="fill:#006837;fill-opacity:0.564627;stroke:#006837;stroke-opacity:0.564627;"/>
    <path clip-path="url(#p670317ccbc)" d="M 145.879544 100.754353 
C 146.884948 100.754353 147.849308 100.354902 148.560236 99.643974 
C 149.271163 98.933047 149.670614 97.968687 149.670614 96.963283 
C 149.670614 95.957879 149.271163 94.993519 148.560236 94.282592 
C 147.849308 93.571664 146.884948 93.172213 145.879544 93.172213 
C 144.874141 93.172213 143.909781 93.571664 143.198853 94.282592 
C 142.487925 94.993519 142.088474 95.957879 142.088474 96.963283 
C 142.088474 97.968687 142.487925 98.933047 143.198853 99.643974 
C 143.909781 100.354902 144.874141 100.754353 145.879544 100.754353 
z
" style="fill:#006837;fill-opacity:0.58421;stroke:#006837;stroke-opacity:0.58421;"/>
    <path clip-path="url(#p670317ccbc)" d="M 87.459382 178.249937 
C 88.704098 178.249937 89.898002 177.755406 90.778149 176.875258 
C 91.658297 175.995111 92.152828 174.801207 92.152828 173.556491 
C 92.152828 172.311775 91.658297 171.117871 90.778149 170.237723 
C 89.898002 169.357576 88.704098 168.863045 87.459382 168.863045 
C 86.214666 168.863045 85.020762 169.357576 84.140614 170.237723 
C 83.260467 171.117871 82.765936 172.311775 82.765936 173.556491 
C 82.765936 174.801207 83.260467 175.995111 84.140614 176.875258 
C 85.020762 177.755406 86.214666 178.249937 87.459382 178.249937 
z
" style="fill:#a50026;fill-opacity:0.592188;stroke:#a50026;stroke-opacity:0.592188;"/>
    <path clip-path="url(#p670317ccbc)" d="M 128.023076 134.796824 
C 128.960543 134.796824 129.85974 134.424364 130.52263 133.761475 
C 131.185519 133.098586 131.557978 132.199389 131.557978 131.261922 
C 131.557978 130.324455 131.185519 129.425258 130.52263 128.762368 
C 129.85974 128.099479 128.960543 127.72702 128.023076 127.72702 
C 127.085609 127.72702 126.186412 128.099479 125.523523 128.762368 
C 124.860634 129.425258 124.488174 130.324455 124.488174 131.261922 
C 124.488174 132.199389 124.860634 133.098586 125.523523 133.761475 
C 126.186412 134.424364 127.085609 134.796824 128.023076 134.796824 
z
" style="fill:#006837;fill-opacity:0.595029;stroke:#006837;stroke-opacity:0.595029;"/>
    <path clip-path="url(#p670317ccbc)" d="M 149.247845 179.403762 
C 150.469539 179.403762 151.641361 178.918378 152.505229 178.05451 
C 153.369098 177.190641 153.854482 176.01882 153.854482 174.797125 
C 153.854482 173.575431 153.369098 172.403609 152.505229 171.539741 
C 151.641361 170.675872 150.469539 170.190488 149.247845 170.190488 
C 148.02615 170.190488 146.854329 170.675872 145.99046 171.539741 
C 145.126592 172.403609 144.641207 173.575431 144.641207 174.797125 
C 144.641207 176.01882 145.126592 177.190641 145.99046 178.05451 
C 146.854329 178.918378 148.02615 179.403762 149.247845 179.403762 
z
" style="fill:#a50026;fill-opacity:0.601453;stroke:#a50026;stroke-opacity:0.601453;"/>
    <path clip-path="url(#p670317ccbc)" d="M 65.242573 92.079484 
C 66.201753 92.079484 67.121776 91.698398 67.800018 91.020155 
C 68.478261 90.341913 68.859347 89.42189 68.859347 88.46271 
C 68.859347 87.503531 68.478261 86.583508 67.800018 85.905265 
C 67.121776 85.227023 66.201753 84.845937 65.242573 84.845937 
C 64.283394 84.845937 63.363371 85.227023 62.685128 85.905265 
C 62.006886 86.583508 61.6258 87.503531 61.6258 88.46271 
C 61.6258 89.42189 62.006886 90.341913 62.685128 91.020155 
C 63.363371 91.698398 64.283394 92.079484 65.242573 92.079484 
z
" style="fill:#006837;fill-opacity:0.602414;stroke:#006837;stroke-opacity:0.602414;"/>
    <path clip-path="url(#p670317ccbc)" d="M 101.640951 180.059553 
C 102.9136 180.059553 104.134296 179.553924 105.034195 178.654025 
C 105.934094 177.754126 106.439723 176.53343 106.439723 175.260781 
C 106.439723 173.988131 105.934094 172.767435 105.034195 171.867536 
C 104.134296 170.967637 102.9136 170.462008 101.640951 170.462008 
C 100.368301 170.462008 99.147605 170.967637 98.247706 171.867536 
C 97.347807 172.767435 96.842178 173.988131 96.842178 175.260781 
C 96.842178 176.53343 97.347807 177.754126 98.247706 178.654025 
C 99.147605 179.553924 100.368301 180.059553 101.640951 180.059553 
z
" style="fill:#a50026;fill-opacity:0.604915;stroke:#a50026;stroke-opacity:0.604915;"/>
    <path clip-path="url(#p670317ccbc)" d="M 91.805864 94.285851 
C 92.795566 94.285851 93.744865 93.892638 94.44469 93.192813 
C 95.144515 92.492988 95.537728 91.543689 95.537728 90.553987 
C 95.537728 89.564285 95.144515 88.614985 94.44469 87.91516 
C 93.744865 87.215335 92.795566 86.822123 91.805864 86.822123 
C 90.816162 86.822123 89.866862 87.215335 89.167038 87.91516 
C 88.467213 88.614985 88.074 89.564285 88.074 90.553987 
C 88.074 91.543689 88.467213 92.492988 89.167038 93.192813 
C 89.866862 93.892638 90.816162 94.285851 91.805864 94.285851 
z
" style="fill:#006837;fill-opacity:0.626204;stroke:#006837;stroke-opacity:0.626204;"/>
    <path clip-path="url(#p670317ccbc)" d="M 44.277344 124.830207 
C 45.005636 124.830207 45.704197 124.540854 46.219177 124.025874 
C 46.734157 123.510894 47.023511 122.812333 47.023511 122.084041 
C 47.023511 121.355749 46.734157 120.657188 46.219177 120.142208 
C 45.704197 119.627228 45.005636 119.337874 44.277344 119.337874 
C 43.549053 119.337874 42.850492 119.627228 42.335512 120.142208 
C 41.820531 120.657188 41.531178 121.355749 41.531178 122.084041 
C 41.531178 122.812333 41.820531 123.510894 42.335512 124.025874 
C 42.850492 124.540854 43.549053 124.830207 44.277344 124.830207 
z
" style="fill:#006837;fill-opacity:0.81098;stroke:#006837;stroke-opacity:0.81098;"/>
    <path clip-path="url(#p670317ccbc)" d="M 172.062451 120.887847 
C 172.760072 120.887847 173.429214 120.61068 173.922506 120.117387 
C 174.415799 119.624095 174.692966 118.954953 174.692966 118.257332 
C 174.692966 117.559711 174.415799 116.890569 173.922506 116.397276 
C 173.429214 115.903984 172.760072 115.626816 172.062451 115.626816 
C 171.36483 115.626816 170.695688 115.903984 170.202395 116.397276 
C 169.709103 116.890569 169.431935 117.559711 169.431935 118.257332 
C 169.431935 118.954953 169.709103 119.624095 170.202395 120.117387 
C 170.695688 120.61068 171.36483 120.887847 172.062451 120.887847 
z
" style="fill:#006837;fill-opacity:0.86033;stroke:#006837;stroke-opacity:0.86033;"/>
    <path clip-path="url(#p670317ccbc)" d="M 110.825471 149.901405 
C 111.801728 149.901405 112.738132 149.513534 113.42845 148.823216 
C 114.118768 148.132898 114.506639 147.196495 114.506639 146.220237 
C 114.506639 145.24398 114.118768 144.307577 113.42845 143.617259 
C 112.738132 142.926941 111.801728 142.53907 110.825471 142.53907 
C 109.849214 142.53907 108.912811 142.926941 108.222493 143.617259 
C 107.532174 144.307577 107.144303 145.24398 107.144303 146.220237 
C 107.144303 147.196495 107.532174 148.132898 108.222493 148.823216 
C 108.912811 149.513534 109.849214 149.901405 110.825471 149.901405 
z
" style="fill:#006837;fill-opacity:0.900752;stroke:#006837;stroke-opacity:0.900752;"/>
    <path clip-path="url(#p670317ccbc)" d="M 97.563326 133.191141 
C 98.50854 133.191141 99.415168 132.815603 100.083535 132.147236 
C 100.751902 131.478869 101.12744 130.572241 101.12744 129.627027 
C 101.12744 128.681812 100.751902 127.775185 100.083535 127.106817 
C 99.415168 126.43845 98.50854 126.062912 97.563326 126.062912 
C 96.618111 126.062912 95.711484 126.43845 95.043116 127.106817 
C 94.374749 127.775185 93.999211 128.681812 93.999211 129.627027 
C 93.999211 130.572241 94.374749 131.478869 95.043116 132.147236 
C 95.711484 132.815603 96.618111 133.191141 97.563326 133.191141 
z
" style="fill:#006837;fill-opacity:0.978827;stroke:#006837;stroke-opacity:0.978827;"/>
    <path clip-path="url(#p670317ccbc)" d="M 96.711231 118.948406 
C 97.602428 118.948406 98.457244 118.594329 99.087416 117.964158 
C 99.717587 117.333986 100.071664 116.47917 100.071664 115.587973 
C 100.071664 114.696776 99.717587 113.84196 99.087416 113.211789 
C 98.457244 112.581617 97.602428 112.227541 96.711231 112.227541 
C 95.820034 112.227541 94.965218 112.581617 94.335047 113.211789 
C 93.704876 113.84196 93.350799 114.696776 93.350799 115.587973 
C 93.350799 116.47917 93.704876 117.333986 94.335047 117.964158 
C 94.965218 118.594329 95.820034 118.948406 96.711231 118.948406 
z
" style="fill:#006837;stroke:#006837;"/>
   </g>
   <g id="text_20">
    <!-- Movement at: 6.00 Seconds -->
    <g transform="translate(21.793125 16.318125)scale(0.12 -0.12)">
     <defs>
      <path d="M 9.1875 72.90625 
L 33.109375 72.90625 
L 49.703125 33.890625 
L 66.40625 72.90625 
L 90.28125 72.90625 
L 90.28125 0 
L 72.515625 0 
L 72.515625 53.328125 
L 55.71875 14.015625 
L 43.796875 14.015625 
L 27 53.328125 
L 27 0 
L 9.1875 0 
z
" id="DejaVuSans-Bold-77"/>
      <path d="M 34.421875 43.5 
Q 28.609375 43.5 25.5625 39.328125 
Q 22.515625 35.15625 22.515625 27.296875 
Q 22.515625 19.4375 25.5625 15.25 
Q 28.609375 11.078125 34.421875 11.078125 
Q 40.140625 11.078125 43.15625 15.25 
Q 46.1875 19.4375 46.1875 27.296875 
Q 46.1875 35.15625 43.15625 39.328125 
Q 40.140625 43.5 34.421875 43.5 
z
M 34.421875 56 
Q 48.53125 56 56.46875 48.375 
Q 64.40625 40.765625 64.40625 27.296875 
Q 64.40625 13.8125 56.46875 6.1875 
Q 48.53125 -1.421875 34.421875 -1.421875 
Q 20.265625 -1.421875 12.28125 6.1875 
Q 4.296875 13.8125 4.296875 27.296875 
Q 4.296875 40.765625 12.28125 48.375 
Q 20.265625 56 34.421875 56 
z
" id="DejaVuSans-Bold-111"/>
      <path d="M 1.515625 54.6875 
L 19 54.6875 
L 32.625 16.890625 
L 46.1875 54.6875 
L 63.71875 54.6875 
L 42.1875 0 
L 23 0 
z
" id="DejaVuSans-Bold-118"/>
      <path d="M 62.984375 27.484375 
L 62.984375 22.515625 
L 22.125 22.515625 
Q 22.75 16.359375 26.5625 13.28125 
Q 30.375 10.203125 37.203125 10.203125 
Q 42.71875 10.203125 48.5 11.84375 
Q 54.296875 13.484375 60.40625 16.796875 
L 60.40625 3.328125 
Q 54.203125 0.984375 48 -0.21875 
Q 41.796875 -1.421875 35.59375 -1.421875 
Q 20.75 -1.421875 12.515625 6.125 
Q 4.296875 13.671875 4.296875 27.296875 
Q 4.296875 40.671875 12.375 48.328125 
Q 20.453125 56 34.625 56 
Q 47.515625 56 55.25 48.234375 
Q 62.984375 40.484375 62.984375 27.484375 
z
M 45.015625 33.296875 
Q 45.015625 38.28125 42.109375 41.328125 
Q 39.203125 44.390625 34.515625 44.390625 
Q 29.4375 44.390625 26.265625 41.53125 
Q 23.09375 38.671875 22.3125 33.296875 
z
" id="DejaVuSans-Bold-101"/>
      <path d="M 59.078125 45.609375 
Q 62.40625 50.6875 66.96875 53.34375 
Q 71.53125 56 77 56 
Q 86.421875 56 91.359375 50.1875 
Q 96.296875 44.390625 96.296875 33.296875 
L 96.296875 0 
L 78.71875 0 
L 78.71875 28.515625 
Q 78.765625 29.15625 78.78125 29.828125 
Q 78.8125 30.515625 78.8125 31.78125 
Q 78.8125 37.59375 77.09375 40.203125 
Q 75.390625 42.828125 71.578125 42.828125 
Q 66.609375 42.828125 63.890625 38.71875 
Q 61.1875 34.625 61.078125 26.859375 
L 61.078125 0 
L 43.5 0 
L 43.5 28.515625 
Q 43.5 37.59375 41.9375 40.203125 
Q 40.375 42.828125 36.375 42.828125 
Q 31.34375 42.828125 28.609375 38.703125 
Q 25.875 34.578125 25.875 26.90625 
L 25.875 0 
L 8.296875 0 
L 8.296875 54.6875 
L 25.875 54.6875 
L 25.875 46.6875 
Q 29.109375 51.3125 33.28125 53.65625 
Q 37.453125 56 42.484375 56 
Q 48.140625 56 52.484375 53.265625 
Q 56.84375 50.53125 59.078125 45.609375 
z
" id="DejaVuSans-Bold-109"/>
      <path d="M 63.375 33.296875 
L 63.375 0 
L 45.796875 0 
L 45.796875 5.421875 
L 45.796875 25.484375 
Q 45.796875 32.5625 45.484375 35.25 
Q 45.171875 37.9375 44.390625 39.203125 
Q 43.359375 40.921875 41.59375 41.875 
Q 39.84375 42.828125 37.59375 42.828125 
Q 32.125 42.828125 29 38.59375 
Q 25.875 34.375 25.875 26.90625 
L 25.875 0 
L 8.40625 0 
L 8.40625 54.6875 
L 25.875 54.6875 
L 25.875 46.6875 
Q 29.828125 51.46875 34.265625 53.734375 
Q 38.71875 56 44.09375 56 
Q 53.5625 56 58.46875 50.1875 
Q 63.375 44.390625 63.375 33.296875 
z
" id="DejaVuSans-Bold-110"/>
      <path d="M 27.484375 70.21875 
L 27.484375 54.6875 
L 45.515625 54.6875 
L 45.515625 42.1875 
L 27.484375 42.1875 
L 27.484375 19 
Q 27.484375 15.1875 29 13.84375 
Q 30.515625 12.5 35.015625 12.5 
L 44 12.5 
L 44 0 
L 29 0 
Q 18.65625 0 14.328125 4.3125 
Q 10.015625 8.640625 10.015625 19 
L 10.015625 42.1875 
L 1.3125 42.1875 
L 1.3125 54.6875 
L 10.015625 54.6875 
L 10.015625 70.21875 
z
" id="DejaVuSans-Bold-116"/>
      <path id="DejaVuSans-Bold-32"/>
      <path d="M 32.90625 24.609375 
Q 27.4375 24.609375 24.671875 22.75 
Q 21.921875 20.90625 21.921875 17.28125 
Q 21.921875 13.96875 24.140625 12.078125 
Q 26.375 10.203125 30.328125 10.203125 
Q 35.25 10.203125 38.625 13.734375 
Q 42 17.28125 42 22.609375 
L 42 24.609375 
z
M 59.625 31.203125 
L 59.625 0 
L 42 0 
L 42 8.109375 
Q 38.484375 3.125 34.078125 0.84375 
Q 29.6875 -1.421875 23.390625 -1.421875 
Q 14.890625 -1.421875 9.59375 3.53125 
Q 4.296875 8.5 4.296875 16.40625 
Q 4.296875 26.03125 10.90625 30.515625 
Q 17.53125 35.015625 31.6875 35.015625 
L 42 35.015625 
L 42 36.375 
Q 42 40.53125 38.71875 42.453125 
Q 35.453125 44.390625 28.515625 44.390625 
Q 22.90625 44.390625 18.0625 43.265625 
Q 13.234375 42.140625 9.078125 39.890625 
L 9.078125 53.21875 
Q 14.703125 54.59375 20.359375 55.296875 
Q 26.03125 56 31.6875 56 
Q 46.484375 56 53.046875 50.171875 
Q 59.625 44.34375 59.625 31.203125 
z
" id="DejaVuSans-Bold-97"/>
      <path d="M 11.1875 54.6875 
L 28.8125 54.6875 
L 28.8125 35.796875 
L 11.1875 35.796875 
z
M 11.1875 18.890625 
L 28.8125 18.890625 
L 28.8125 0 
L 11.1875 0 
z
" id="DejaVuSans-Bold-58"/>
      <path d="M 36.1875 35.984375 
Q 31.25 35.984375 28.78125 32.78125 
Q 26.3125 29.59375 26.3125 23.1875 
Q 26.3125 16.796875 28.78125 13.59375 
Q 31.25 10.40625 36.1875 10.40625 
Q 41.15625 10.40625 43.625 13.59375 
Q 46.09375 16.796875 46.09375 23.1875 
Q 46.09375 29.59375 43.625 32.78125 
Q 41.15625 35.984375 36.1875 35.984375 
z
M 59.421875 71 
L 59.421875 57.515625 
Q 54.78125 59.71875 50.671875 60.765625 
Q 46.578125 61.8125 42.671875 61.8125 
Q 34.28125 61.8125 29.59375 57.140625 
Q 24.90625 52.484375 24.125 43.3125 
Q 27.34375 45.703125 31.09375 46.890625 
Q 34.859375 48.09375 39.3125 48.09375 
Q 50.484375 48.09375 57.34375 41.546875 
Q 64.203125 35.015625 64.203125 24.421875 
Q 64.203125 12.703125 56.53125 5.640625 
Q 48.875 -1.421875 35.984375 -1.421875 
Q 21.78125 -1.421875 13.984375 8.171875 
Q 6.203125 17.78125 6.203125 35.40625 
Q 6.203125 53.46875 15.3125 63.796875 
Q 24.421875 74.125 40.28125 74.125 
Q 45.3125 74.125 50.046875 73.34375 
Q 54.78125 72.5625 59.421875 71 
z
" id="DejaVuSans-Bold-54"/>
      <path d="M 10.203125 18.890625 
L 27.78125 18.890625 
L 27.78125 0 
L 10.203125 0 
z
" id="DejaVuSans-Bold-46"/>
      <path d="M 46 36.53125 
Q 46 50.203125 43.4375 55.78125 
Q 40.875 61.375 34.8125 61.375 
Q 28.765625 61.375 26.171875 55.78125 
Q 23.578125 50.203125 23.578125 36.53125 
Q 23.578125 22.703125 26.171875 17.03125 
Q 28.765625 11.375 34.8125 11.375 
Q 40.828125 11.375 43.40625 17.03125 
Q 46 22.703125 46 36.53125 
z
M 64.796875 36.375 
Q 64.796875 18.265625 56.984375 8.421875 
Q 49.171875 -1.421875 34.8125 -1.421875 
Q 20.40625 -1.421875 12.59375 8.421875 
Q 4.78125 18.265625 4.78125 36.375 
Q 4.78125 54.546875 12.59375 64.375 
Q 20.40625 74.21875 34.8125 74.21875 
Q 49.171875 74.21875 56.984375 64.375 
Q 64.796875 54.546875 64.796875 36.375 
z
" id="DejaVuSans-Bold-48"/>
      <path d="M 59.90625 70.609375 
L 59.90625 55.171875 
Q 53.90625 57.859375 48.1875 59.21875 
Q 42.484375 60.59375 37.40625 60.59375 
Q 30.671875 60.59375 27.4375 58.734375 
Q 24.21875 56.890625 24.21875 52.984375 
Q 24.21875 50.046875 26.390625 48.40625 
Q 28.5625 46.78125 34.28125 45.609375 
L 42.28125 44 
Q 54.4375 41.546875 59.5625 36.5625 
Q 64.703125 31.59375 64.703125 22.40625 
Q 64.703125 10.359375 57.546875 4.46875 
Q 50.390625 -1.421875 35.6875 -1.421875 
Q 28.765625 -1.421875 21.78125 -0.09375 
Q 14.796875 1.21875 7.8125 3.8125 
L 7.8125 19.671875 
Q 14.796875 15.96875 21.3125 14.078125 
Q 27.828125 12.203125 33.890625 12.203125 
Q 40.046875 12.203125 43.3125 14.25 
Q 46.578125 16.3125 46.578125 20.125 
Q 46.578125 23.53125 44.359375 25.390625 
Q 42.140625 27.25 35.5 28.71875 
L 28.21875 30.328125 
Q 17.28125 32.671875 12.21875 37.796875 
Q 7.171875 42.921875 7.171875 51.609375 
Q 7.171875 62.5 14.203125 68.359375 
Q 21.234375 74.21875 34.421875 74.21875 
Q 40.4375 74.21875 46.78125 73.3125 
Q 53.125 72.40625 59.90625 70.609375 
z
" id="DejaVuSans-Bold-83"/>
      <path d="M 52.59375 52.984375 
L 52.59375 38.71875 
Q 49.03125 41.15625 45.4375 42.328125 
Q 41.84375 43.5 37.984375 43.5 
Q 30.671875 43.5 26.59375 39.234375 
Q 22.515625 34.96875 22.515625 27.296875 
Q 22.515625 19.625 26.59375 15.34375 
Q 30.671875 11.078125 37.984375 11.078125 
Q 42.09375 11.078125 45.78125 12.296875 
Q 49.46875 13.53125 52.59375 15.921875 
L 52.59375 1.609375 
Q 48.484375 0.09375 44.265625 -0.65625 
Q 40.046875 -1.421875 35.796875 -1.421875 
Q 21 -1.421875 12.640625 6.171875 
Q 4.296875 13.765625 4.296875 27.296875 
Q 4.296875 40.828125 12.640625 48.40625 
Q 21 56 35.796875 56 
Q 40.09375 56 44.265625 55.25 
Q 48.4375 54.5 52.59375 52.984375 
z
" id="DejaVuSans-Bold-99"/>
      <path d="M 45.609375 46.6875 
L 45.609375 75.984375 
L 63.1875 75.984375 
L 63.1875 0 
L 45.609375 0 
L 45.609375 7.90625 
Q 42 3.078125 37.640625 0.828125 
Q 33.296875 -1.421875 27.59375 -1.421875 
Q 17.484375 -1.421875 10.984375 6.609375 
Q 4.5 14.65625 4.5 27.296875 
Q 4.5 39.9375 10.984375 47.96875 
Q 17.484375 56 27.59375 56 
Q 33.25 56 37.625 53.734375 
Q 42 51.46875 45.609375 46.6875 
z
M 34.078125 11.28125 
Q 39.703125 11.28125 42.65625 15.375 
Q 45.609375 19.484375 45.609375 27.296875 
Q 45.609375 35.109375 42.65625 39.203125 
Q 39.703125 43.3125 34.078125 43.3125 
Q 28.515625 43.3125 25.5625 39.203125 
Q 22.609375 35.109375 22.609375 27.296875 
Q 22.609375 19.484375 25.5625 15.375 
Q 28.515625 11.28125 34.078125 11.28125 
z
" id="DejaVuSans-Bold-100"/>
      <path d="M 51.125 52.984375 
L 51.125 39.703125 
Q 45.515625 42.046875 40.28125 43.21875 
Q 35.0625 44.390625 30.421875 44.390625 
Q 25.4375 44.390625 23.015625 43.140625 
Q 20.609375 41.890625 20.609375 39.3125 
Q 20.609375 37.203125 22.4375 36.078125 
Q 24.265625 34.96875 29 34.421875 
L 32.078125 33.984375 
Q 45.515625 32.28125 50.140625 28.375 
Q 54.78125 24.46875 54.78125 16.109375 
Q 54.78125 7.375 48.328125 2.96875 
Q 41.890625 -1.421875 29.109375 -1.421875 
Q 23.6875 -1.421875 17.890625 -0.5625 
Q 12.109375 0.296875 6 2 
L 6 15.28125 
Q 11.234375 12.75 16.71875 11.46875 
Q 22.21875 10.203125 27.875 10.203125 
Q 33.015625 10.203125 35.59375 11.609375 
Q 38.1875 13.03125 38.1875 15.828125 
Q 38.1875 18.171875 36.40625 19.3125 
Q 34.625 20.453125 29.296875 21.09375 
L 26.21875 21.484375 
Q 14.546875 22.953125 9.859375 26.90625 
Q 5.171875 30.859375 5.171875 38.921875 
Q 5.171875 47.609375 11.125 51.796875 
Q 17.09375 56 29.390625 56 
Q 34.234375 56 39.546875 55.265625 
Q 44.875 54.546875 51.125 52.984375 
z
" id="DejaVuSans-Bold-115"/>
     </defs>
     <use xlink:href="#DejaVuSans-Bold-77"/>
     <use x="99.511719" xlink:href="#DejaVuSans-Bold-111"/>
     <use x="168.212891" xlink:href="#DejaVuSans-Bold-118"/>
     <use x="233.398438" xlink:href="#DejaVuSans-Bold-101"/>
     <use x="301.220703" xlink:href="#DejaVuSans-Bold-109"/>
     <use x="405.419922" xlink:href="#DejaVuSans-Bold-101"/>
     <use x="473.242188" xlink:href="#DejaVuSans-Bold-110"/>
     <use x="544.433594" xlink:href="#DejaVuSans-Bold-116"/>
     <use x="592.236328" xlink:href="#DejaVuSans-Bold-32"/>
     <use x="627.050781" xlink:href="#DejaVuSans-Bold-97"/>
     <use x="694.53125" xlink:href="#DejaVuSans-Bold-116"/>
     <use x="742.333984" xlink:href="#DejaVuSans-Bold-58"/>
     <use x="782.324219" xlink:href="#DejaVuSans-Bold-32"/>
     <use x="817.138672" xlink:href="#DejaVuSans-Bold-54"/>
     <use x="886.71875" xlink:href="#DejaVuSans-Bold-46"/>
     <use x="924.707031" xlink:href="#DejaVuSans-Bold-48"/>
     <use x="994.287109" xlink:href="#DejaVuSans-Bold-48"/>
     <use x="1063.867188" xlink:href="#DejaVuSans-Bold-32"/>
     <use x="1098.681641" xlink:href="#DejaVuSans-Bold-83"/>
     <use x="1170.703125" xlink:href="#DejaVuSans-Bold-101"/>
     <use x="1238.525391" xlink:href="#DejaVuSans-Bold-99"/>
     <use x="1297.802734" xlink:href="#DejaVuSans-Bold-111"/>
     <use x="1366.503906" xlink:href="#DejaVuSans-Bold-110"/>
     <use x="1437.695312" xlink:href="#DejaVuSans-Bold-100"/>
     <use x="1509.277344" xlink:href="#DejaVuSans-Bold-115"/>
    </g>
   </g>
   <g id="Line3DCollection_4">
    <path clip-path="url(#p670317ccbc)" d="M 44.343274 123.888973 
L 44.277344 122.084041 
" style="fill:none;stroke:#1f77b4;stroke-width:1.5;"/>
    <path clip-path="url(#p670317ccbc)" d="M 95.69531 125.734622 
L 95.588411 116.328514 
" style="fill:none;stroke:#1f77b4;stroke-width:1.5;"/>
    <path clip-path="url(#p670317ccbc)" d="M 149.044719 188.092239 
L 149.247845 174.797125 
" style="fill:none;stroke:#1f77b4;stroke-width:1.5;"/>
    <path clip-path="url(#p670317ccbc)" d="M 62.877713 174.30504 
L 62.402004 157.398254 
" style="fill:none;stroke:#1f77b4;stroke-width:1.5;"/>
    <path clip-path="url(#p670317ccbc)" d="M 175.613074 89.178071 
L 175.70548 85.800142 
" style="fill:none;stroke:#1f77b4;stroke-width:1.5;"/>
    <path clip-path="url(#p670317ccbc)" d="M 128.00175 135.991791 
L 128.023076 131.261922 
" style="fill:none;stroke:#1f77b4;stroke-width:1.5;"/>
    <path clip-path="url(#p670317ccbc)" d="M 96.756496 119.774291 
L 96.711231 115.587973 
" style="fill:none;stroke:#1f77b4;stroke-width:1.5;"/>
    <path clip-path="url(#p670317ccbc)" d="M 110.84868 152.049697 
L 110.825471 146.220237 
" style="fill:none;stroke:#1f77b4;stroke-width:1.5;"/>
    <path clip-path="url(#p670317ccbc)" d="M 101.776379 190.902751 
L 101.640951 175.260781 
" style="fill:none;stroke:#1f77b4;stroke-width:1.5;"/>
    <path clip-path="url(#p670317ccbc)" d="M 129.908972 185.743493 
L 130.010031 167.653227 
" style="fill:none;stroke:#1f77b4;stroke-width:1.5;"/>
    <path clip-path="url(#p670317ccbc)" d="M 124.823549 150.662071 
L 124.871642 134.431211 
" style="fill:none;stroke:#1f77b4;stroke-width:1.5;"/>
    <path clip-path="url(#p670317ccbc)" d="M 172.022489 119.7938 
L 172.062451 118.257332 
" style="fill:none;stroke:#1f77b4;stroke-width:1.5;"/>
    <path clip-path="url(#p670317ccbc)" d="M 91.884449 96.576806 
L 91.805864 90.553987 
" style="fill:none;stroke:#1f77b4;stroke-width:1.5;"/>
    <path clip-path="url(#p670317ccbc)" d="M 123.406685 149.33239 
L 123.427823 139.969857 
" style="fill:none;stroke:#1f77b4;stroke-width:1.5;"/>
    <path clip-path="url(#p670317ccbc)" d="M 65.379446 93.760877 
L 65.242573 88.46271 
" style="fill:none;stroke:#1f77b4;stroke-width:1.5;"/>
    <path clip-path="url(#p670317ccbc)" d="M 95.762555 139.366835 
L 95.660903 130.456416 
" style="fill:none;stroke:#1f77b4;stroke-width:1.5;"/>
    <path clip-path="url(#p670317ccbc)" d="M 87.685016 187.858934 
L 87.459382 173.556491 
" style="fill:none;stroke:#1f77b4;stroke-width:1.5;"/>
    <path clip-path="url(#p670317ccbc)" d="M 145.796613 103.306887 
L 145.879544 96.963283 
" style="fill:none;stroke:#1f77b4;stroke-width:1.5;"/>
    <path clip-path="url(#p670317ccbc)" d="M 139.903342 159.581803 
L 140.05268 145.359121 
" style="fill:none;stroke:#1f77b4;stroke-width:1.5;"/>
    <path clip-path="url(#p670317ccbc)" d="M 97.618155 134.864692 
L 97.563326 129.627027 
" style="fill:none;stroke:#1f77b4;stroke-width:1.5;"/>
    <path clip-path="url(#p670317ccbc)" d="M 44.343274 123.888973 
L 44.611922 123.451457 
" style="fill:none;stroke:#1f77b4;stroke-width:1.5;"/>
    <path clip-path="url(#p670317ccbc)" d="M 44.343274 123.888973 
L 44.036513 123.281109 
" style="fill:none;stroke:#1f77b4;stroke-width:1.5;"/>
    <path clip-path="url(#p670317ccbc)" d="M 95.69531 125.734622 
L 97.195921 123.46101 
" style="fill:none;stroke:#1f77b4;stroke-width:1.5;"/>
    <path clip-path="url(#p670317ccbc)" d="M 95.69531 125.734622 
L 94.134961 122.575265 
" style="fill:none;stroke:#1f77b4;stroke-width:1.5;"/>
    <path clip-path="url(#p670317ccbc)" d="M 149.044719 188.092239 
L 151.384848 184.962009 
" style="fill:none;stroke:#1f77b4;stroke-width:1.5;"/>
    <path clip-path="url(#p670317ccbc)" d="M 149.044719 188.092239 
L 146.826117 183.555209 
" style="fill:none;stroke:#1f77b4;stroke-width:1.5;"/>
    <path clip-path="url(#p670317ccbc)" d="M 62.877713 174.30504 
L 65.514643 170.305547 
" style="fill:none;stroke:#1f77b4;stroke-width:1.5;"/>
    <path clip-path="url(#p670317ccbc)" d="M 62.877713 174.30504 
L 59.973429 168.566994 
" style="fill:none;stroke:#1f77b4;stroke-width:1.5;"/>
    <path clip-path="url(#p670317ccbc)" d="M 175.613074 89.178071 
L 176.199629 88.348866 
" style="fill:none;stroke:#1f77b4;stroke-width:1.5;"/>
    <path clip-path="url(#p670317ccbc)" d="M 175.613074 89.178071 
L 175.080272 88.051908 
" style="fill:none;stroke:#1f77b4;stroke-width:1.5;"/>
    <path clip-path="url(#p670317ccbc)" d="M 128.00175 135.991791 
L 128.793695 134.851573 
" style="fill:none;stroke:#1f77b4;stroke-width:1.5;"/>
    <path clip-path="url(#p670317ccbc)" d="M 128.00175 135.991791 
L 127.222668 134.395472 
" style="fill:none;stroke:#1f77b4;stroke-width:1.5;"/>
    <path clip-path="url(#p670317ccbc)" d="M 96.756496 119.774291 
L 97.424324 118.758596 
" style="fill:none;stroke:#1f77b4;stroke-width:1.5;"/>
    <path clip-path="url(#p670317ccbc)" d="M 96.756496 119.774291 
L 96.062871 118.367421 
" style="fill:none;stroke:#1f77b4;stroke-width:1.5;"/>
    <path clip-path="url(#p670317ccbc)" d="M 110.84868 152.049697 
L 111.810738 150.653742 
" style="fill:none;stroke:#1f77b4;stroke-width:1.5;"/>
    <path clip-path="url(#p670317ccbc)" d="M 110.84868 152.049697 
L 109.874 150.074335 
" style="fill:none;stroke:#1f77b4;stroke-width:1.5;"/>
    <path clip-path="url(#p670317ccbc)" d="M 101.776379 190.902751 
L 104.370205 187.226822 
" style="fill:none;stroke:#1f77b4;stroke-width:1.5;"/>
    <path clip-path="url(#p670317ccbc)" d="M 101.776379 190.902751 
L 99.110432 185.565921 
" style="fill:none;stroke:#1f77b4;stroke-width:1.5;"/>
    <path clip-path="url(#p670317ccbc)" d="M 129.908972 185.743493 
L 133.009663 181.485893 
" style="fill:none;stroke:#1f77b4;stroke-width:1.5;"/>
    <path clip-path="url(#p670317ccbc)" d="M 129.908972 185.743493 
L 126.874441 179.586904 
" style="fill:none;stroke:#1f77b4;stroke-width:1.5;"/>
    <path clip-path="url(#p670317ccbc)" d="M 124.823549 150.662071 
L 127.541069 146.784526 
" style="fill:none;stroke:#1f77b4;stroke-width:1.5;"/>
    <path clip-path="url(#p670317ccbc)" d="M 124.823549 150.662071 
L 122.139932 145.188317 
" style="fill:none;stroke:#1f77b4;stroke-width:1.5;"/>
    <path clip-path="url(#p670317ccbc)" d="M 172.022489 119.7938 
L 172.29225 119.420746 
" style="fill:none;stroke:#1f77b4;stroke-width:1.5;"/>
    <path clip-path="url(#p670317ccbc)" d="M 172.022489 119.7938 
L 171.775931 119.276875 
" style="fill:none;stroke:#1f77b4;stroke-width:1.5;"/>
    <path clip-path="url(#p670317ccbc)" d="M 91.884449 96.576806 
L 92.827869 95.103442 
" style="fill:none;stroke:#1f77b4;stroke-width:1.5;"/>
    <path clip-path="url(#p670317ccbc)" d="M 91.884449 96.576806 
L 90.896382 94.567042 
" style="fill:none;stroke:#1f77b4;stroke-width:1.5;"/>
    <path clip-path="url(#p670317ccbc)" d="M 123.406685 149.33239 
L 124.973396 147.090176 
" style="fill:none;stroke:#1f77b4;stroke-width:1.5;"/>
    <path clip-path="url(#p670317ccbc)" d="M 123.406685 149.33239 
L 121.85425 146.166959 
" style="fill:none;stroke:#1f77b4;stroke-width:1.5;"/>
    <path clip-path="url(#p670317ccbc)" d="M 65.379446 93.760877 
L 66.17908 92.463174 
" style="fill:none;stroke:#1f77b4;stroke-width:1.5;"/>
    <path clip-path="url(#p670317ccbc)" d="M 65.379446 93.760877 
L 64.501243 91.99374 
" style="fill:none;stroke:#1f77b4;stroke-width:1.5;"/>
    <path clip-path="url(#p670317ccbc)" d="M 95.762555 139.366835 
L 97.193958 137.224172 
" style="fill:none;stroke:#1f77b4;stroke-width:1.5;"/>
    <path clip-path="url(#p670317ccbc)" d="M 95.762555 139.366835 
L 94.274253 136.362048 
" style="fill:none;stroke:#1f77b4;stroke-width:1.5;"/>
    <path clip-path="url(#p670317ccbc)" d="M 87.685016 187.858934 
L 90.01003 184.492174 
" style="fill:none;stroke:#1f77b4;stroke-width:1.5;"/>
    <path clip-path="url(#p670317ccbc)" d="M 87.685016 187.858934 
L 85.234819 182.980583 
" style="fill:none;stroke:#1f77b4;stroke-width:1.5;"/>
    <path clip-path="url(#p670317ccbc)" d="M 145.796613 103.306887 
L 146.865128 101.759077 
" style="fill:none;stroke:#1f77b4;stroke-width:1.5;"/>
    <path clip-path="url(#p670317ccbc)" d="M 145.796613 103.306887 
L 144.776973 101.186499 
" style="fill:none;stroke:#1f77b4;stroke-width:1.5;"/>
    <path clip-path="url(#p670317ccbc)" d="M 139.903342 159.581803 
L 142.342657 156.194307 
" style="fill:none;stroke:#1f77b4;stroke-width:1.5;"/>
    <path clip-path="url(#p670317ccbc)" d="M 139.903342 159.581803 
L 137.554975 154.769238 
" style="fill:none;stroke:#1f77b4;stroke-width:1.5;"/>
    <path clip-path="url(#p670317ccbc)" d="M 97.618155 134.864692 
L 98.460622 133.601683 
" style="fill:none;stroke:#1f77b4;stroke-width:1.5;"/>
    <path clip-path="url(#p670317ccbc)" d="M 97.618155 134.864692 
L 96.744602 133.097923 
" style="fill:none;stroke:#1f77b4;stroke-width:1.5;"/>
   </g>
   <g id="legend_1">
    <g id="patch_6">
     <path d="M 14.2 177.099375 
L 71.021875 177.099375 
Q 73.021875 177.099375 73.021875 175.099375 
L 73.021875 29.318125 
Q 73.021875 27.318125 71.021875 27.318125 
L 14.2 27.318125 
Q 12.2 27.318125 12.2 29.318125 
L 12.2 175.099375 
Q 12.2 177.099375 14.2 177.099375 
z
" style="fill:#ffffff;opacity:0.8;stroke:#cccccc;stroke-linejoin:miter;"/>
    </g>
    <g id="text_21">
     <!-- Sizes [µm] -->
     <g transform="translate(16.2 38.916562)scale(0.1 -0.1)">
      <defs>
       <path d="M 53.515625 70.515625 
L 53.515625 60.890625 
Q 47.90625 63.578125 42.921875 64.890625 
Q 37.9375 66.21875 33.296875 66.21875 
Q 25.25 66.21875 20.875 63.09375 
Q 16.5 59.96875 16.5 54.203125 
Q 16.5 49.359375 19.40625 46.890625 
Q 22.3125 44.4375 30.421875 42.921875 
L 36.375 41.703125 
Q 47.40625 39.59375 52.65625 34.296875 
Q 57.90625 29 57.90625 20.125 
Q 57.90625 9.515625 50.796875 4.046875 
Q 43.703125 -1.421875 29.984375 -1.421875 
Q 24.8125 -1.421875 18.96875 -0.25 
Q 13.140625 0.921875 6.890625 3.21875 
L 6.890625 13.375 
Q 12.890625 10.015625 18.65625 8.296875 
Q 24.421875 6.59375 29.984375 6.59375 
Q 38.421875 6.59375 43.015625 9.90625 
Q 47.609375 13.234375 47.609375 19.390625 
Q 47.609375 24.75 44.3125 27.78125 
Q 41.015625 30.8125 33.5 32.328125 
L 27.484375 33.5 
Q 16.453125 35.6875 11.515625 40.375 
Q 6.59375 45.0625 6.59375 53.421875 
Q 6.59375 63.09375 13.40625 68.65625 
Q 20.21875 74.21875 32.171875 74.21875 
Q 37.3125 74.21875 42.625 73.28125 
Q 47.953125 72.359375 53.515625 70.515625 
z
" id="DejaVuSans-83"/>
       <path d="M 9.421875 54.6875 
L 18.40625 54.6875 
L 18.40625 0 
L 9.421875 0 
z
M 9.421875 75.984375 
L 18.40625 75.984375 
L 18.40625 64.59375 
L 9.421875 64.59375 
z
" id="DejaVuSans-105"/>
       <path d="M 5.515625 54.6875 
L 48.1875 54.6875 
L 48.1875 46.484375 
L 14.40625 7.171875 
L 48.1875 7.171875 
L 48.1875 0 
L 4.296875 0 
L 4.296875 8.203125 
L 38.09375 47.515625 
L 5.515625 47.515625 
z
" id="DejaVuSans-122"/>
       <path d="M 56.203125 29.59375 
L 56.203125 25.203125 
L 14.890625 25.203125 
Q 15.484375 15.921875 20.484375 11.0625 
Q 25.484375 6.203125 34.421875 6.203125 
Q 39.59375 6.203125 44.453125 7.46875 
Q 49.3125 8.734375 54.109375 11.28125 
L 54.109375 2.78125 
Q 49.265625 0.734375 44.1875 -0.34375 
Q 39.109375 -1.421875 33.890625 -1.421875 
Q 20.796875 -1.421875 13.15625 6.1875 
Q 5.515625 13.8125 5.515625 26.8125 
Q 5.515625 40.234375 12.765625 48.109375 
Q 20.015625 56 32.328125 56 
Q 43.359375 56 49.78125 48.890625 
Q 56.203125 41.796875 56.203125 29.59375 
z
M 47.21875 32.234375 
Q 47.125 39.59375 43.09375 43.984375 
Q 39.0625 48.390625 32.421875 48.390625 
Q 24.90625 48.390625 20.390625 44.140625 
Q 15.875 39.890625 15.1875 32.171875 
z
" id="DejaVuSans-101"/>
       <path d="M 44.28125 53.078125 
L 44.28125 44.578125 
Q 40.484375 46.53125 36.375 47.5 
Q 32.28125 48.484375 27.875 48.484375 
Q 21.1875 48.484375 17.84375 46.4375 
Q 14.5 44.390625 14.5 40.28125 
Q 14.5 37.15625 16.890625 35.375 
Q 19.28125 33.59375 26.515625 31.984375 
L 29.59375 31.296875 
Q 39.15625 29.25 43.1875 25.515625 
Q 47.21875 21.78125 47.21875 15.09375 
Q 47.21875 7.46875 41.1875 3.015625 
Q 35.15625 -1.421875 24.609375 -1.421875 
Q 20.21875 -1.421875 15.453125 -0.5625 
Q 10.6875 0.296875 5.421875 2 
L 5.421875 11.28125 
Q 10.40625 8.6875 15.234375 7.390625 
Q 20.0625 6.109375 24.8125 6.109375 
Q 31.15625 6.109375 34.5625 8.28125 
Q 37.984375 10.453125 37.984375 14.40625 
Q 37.984375 18.0625 35.515625 20.015625 
Q 33.0625 21.96875 24.703125 23.78125 
L 21.578125 24.515625 
Q 13.234375 26.265625 9.515625 29.90625 
Q 5.8125 33.546875 5.8125 39.890625 
Q 5.8125 47.609375 11.28125 51.796875 
Q 16.75 56 26.8125 56 
Q 31.78125 56 36.171875 55.265625 
Q 40.578125 54.546875 44.28125 53.078125 
z
" id="DejaVuSans-115"/>
       <path d="M 8.5 -20.796875 
L 8.5 54.6875 
L 17.484375 54.6875 
L 17.484375 20.703125 
Q 17.484375 13.625 20.84375 10 
Q 24.21875 6.390625 30.8125 6.390625 
Q 38.03125 6.390625 41.671875 10.484375 
Q 45.3125 14.59375 45.3125 22.796875 
L 45.3125 54.6875 
L 54.296875 54.6875 
L 54.296875 12.59375 
Q 54.296875 9.671875 55.140625 8.28125 
Q 56 6.890625 57.8125 6.890625 
Q 58.25 6.890625 59.03125 7.15625 
Q 59.8125 7.421875 61.1875 8.015625 
L 61.1875 0.78125 
Q 59.1875 -0.34375 57.390625 -0.875 
Q 55.609375 -1.421875 53.90625 -1.421875 
Q 50.53125 -1.421875 48.53125 0.484375 
Q 46.53125 2.390625 45.796875 6.296875 
Q 43.359375 2.4375 39.8125 0.5 
Q 36.28125 -1.421875 31.5 -1.421875 
Q 26.515625 -1.421875 23.015625 0.484375 
Q 19.53125 2.390625 17.484375 6.203125 
L 17.484375 -20.796875 
z
" id="DejaVuSans-181"/>
      </defs>
      <use xlink:href="#DejaVuSans-83"/>
      <use x="63.476562" xlink:href="#DejaVuSans-105"/>
      <use x="91.259766" xlink:href="#DejaVuSans-122"/>
      <use x="143.75" xlink:href="#DejaVuSans-101"/>
      <use x="205.273438" xlink:href="#DejaVuSans-115"/>
      <use x="257.373047" xlink:href="#DejaVuSans-32"/>
      <use x="289.160156" xlink:href="#DejaVuSans-91"/>
      <use x="328.173828" xlink:href="#DejaVuSans-181"/>
      <use x="391.796875" xlink:href="#DejaVuSans-109"/>
      <use x="489.208984" xlink:href="#DejaVuSans-93"/>
     </g>
    </g>
    <g id="line2d_20"/>
    <g id="line2d_21">
     <defs>
      <path d="M 0 2.828427 
C 0.750108 2.828427 1.469594 2.530406 2 2 
C 2.530406 1.469594 2.828427 0.750108 2.828427 0 
C 2.828427 -0.750108 2.530406 -1.469594 2 -2 
C 1.469594 -2.530406 0.750108 -2.828427 0 -2.828427 
C -0.750108 -2.828427 -1.469594 -2.530406 -2 -2 
C -2.530406 -1.469594 -2.828427 -0.750108 -2.828427 0 
C -2.828427 0.750108 -2.530406 1.469594 -2 2 
C -1.469594 2.530406 -0.750108 2.828427 0 2.828427 
z
" id="m9761ffed92" style="stroke:#000000;stroke-opacity:0.6;"/>
     </defs>
     <g>
      <use style="fill-opacity:0.6;stroke:#000000;stroke-opacity:0.6;" x="32.210938" xlink:href="#m9761ffed92" y="50.094688"/>
     </g>
    </g>
    <g id="text_22">
     <!-- $\mathdefault{32}$ -->
     <g transform="translate(50.210938 53.594688)scale(0.1 -0.1)">
      <defs>
       <path d="M 40.578125 39.3125 
Q 47.65625 37.796875 51.625 33 
Q 55.609375 28.21875 55.609375 21.1875 
Q 55.609375 10.40625 48.1875 4.484375 
Q 40.765625 -1.421875 27.09375 -1.421875 
Q 22.515625 -1.421875 17.65625 -0.515625 
Q 12.796875 0.390625 7.625 2.203125 
L 7.625 11.71875 
Q 11.71875 9.328125 16.59375 8.109375 
Q 21.484375 6.890625 26.8125 6.890625 
Q 36.078125 6.890625 40.9375 10.546875 
Q 45.796875 14.203125 45.796875 21.1875 
Q 45.796875 27.640625 41.28125 31.265625 
Q 36.765625 34.90625 28.71875 34.90625 
L 20.21875 34.90625 
L 20.21875 43.015625 
L 29.109375 43.015625 
Q 36.375 43.015625 40.234375 45.921875 
Q 44.09375 48.828125 44.09375 54.296875 
Q 44.09375 59.90625 40.109375 62.90625 
Q 36.140625 65.921875 28.71875 65.921875 
Q 24.65625 65.921875 20.015625 65.03125 
Q 15.375 64.15625 9.8125 62.3125 
L 9.8125 71.09375 
Q 15.4375 72.65625 20.34375 73.4375 
Q 25.25 74.21875 29.59375 74.21875 
Q 40.828125 74.21875 47.359375 69.109375 
Q 53.90625 64.015625 53.90625 55.328125 
Q 53.90625 49.265625 50.4375 45.09375 
Q 46.96875 40.921875 40.578125 39.3125 
z
" id="DejaVuSans-51"/>
      </defs>
      <use transform="translate(0 0.78125)" xlink:href="#DejaVuSans-51"/>
      <use transform="translate(63.623047 0.78125)" xlink:href="#DejaVuSans-50"/>
     </g>
    </g>
    <g id="line2d_22"/>
    <g id="line2d_23">
     <defs>
      <path d="M 0 3.162278 
C 0.838646 3.162278 1.643056 2.82908 2.236068 2.236068 
C 2.82908 1.643056 3.162278 0.838646 3.162278 0 
C 3.162278 -0.838646 2.82908 -1.643056 2.236068 -2.236068 
C 1.643056 -2.82908 0.838646 -3.162278 0 -3.162278 
C -0.838646 -3.162278 -1.643056 -2.82908 -2.236068 -2.236068 
C -2.82908 -1.643056 -3.162278 -0.838646 -3.162278 0 
C -3.162278 0.838646 -2.82908 1.643056 -2.236068 2.236068 
C -1.643056 2.82908 -0.838646 3.162278 0 3.162278 
z
" id="mecc77280ee" style="stroke:#000000;stroke-opacity:0.6;"/>
     </defs>
     <g>
      <use style="fill-opacity:0.6;stroke:#000000;stroke-opacity:0.6;" x="32.210938" xlink:href="#mecc77280ee" y="64.772813"/>
     </g>
    </g>
    <g id="text_23">
     <!-- $\mathdefault{40}$ -->
     <g transform="translate(50.210938 68.272813)scale(0.1 -0.1)">
      <use transform="translate(0 0.78125)" xlink:href="#DejaVuSans-52"/>
      <use transform="translate(63.623047 0.78125)" xlink:href="#DejaVuSans-48"/>
     </g>
    </g>
    <g id="line2d_24"/>
    <g id="line2d_25">
     <defs>
      <path d="M 0 3.464102 
C 0.91869 3.464102 1.799877 3.099102 2.44949 2.44949 
C 3.099102 1.799877 3.464102 0.91869 3.464102 0 
C 3.464102 -0.91869 3.099102 -1.799877 2.44949 -2.44949 
C 1.799877 -3.099102 0.91869 -3.464102 0 -3.464102 
C -0.91869 -3.464102 -1.799877 -3.099102 -2.44949 -2.44949 
C -3.099102 -1.799877 -3.464102 -0.91869 -3.464102 0 
C -3.464102 0.91869 -3.099102 1.799877 -2.44949 2.44949 
C -1.799877 3.099102 -0.91869 3.464102 0 3.464102 
z
" id="m6a75e55218" style="stroke:#000000;stroke-opacity:0.6;"/>
     </defs>
     <g>
      <use style="fill-opacity:0.6;stroke:#000000;stroke-opacity:0.6;" x="32.210938" xlink:href="#m6a75e55218" y="79.450938"/>
     </g>
    </g>
    <g id="text_24">
     <!-- $\mathdefault{48}$ -->
     <g transform="translate(50.210938 82.950938)scale(0.1 -0.1)">
      <defs>
       <path d="M 31.78125 34.625 
Q 24.75 34.625 20.71875 30.859375 
Q 16.703125 27.09375 16.703125 20.515625 
Q 16.703125 13.921875 20.71875 10.15625 
Q 24.75 6.390625 31.78125 6.390625 
Q 38.8125 6.390625 42.859375 10.171875 
Q 46.921875 13.96875 46.921875 20.515625 
Q 46.921875 27.09375 42.890625 30.859375 
Q 38.875 34.625 31.78125 34.625 
z
M 21.921875 38.8125 
Q 15.578125 40.375 12.03125 44.71875 
Q 8.5 49.078125 8.5 55.328125 
Q 8.5 64.0625 14.71875 69.140625 
Q 20.953125 74.21875 31.78125 74.21875 
Q 42.671875 74.21875 48.875 69.140625 
Q 55.078125 64.0625 55.078125 55.328125 
Q 55.078125 49.078125 51.53125 44.71875 
Q 48 40.375 41.703125 38.8125 
Q 48.828125 37.15625 52.796875 32.3125 
Q 56.78125 27.484375 56.78125 20.515625 
Q 56.78125 9.90625 50.3125 4.234375 
Q 43.84375 -1.421875 31.78125 -1.421875 
Q 19.734375 -1.421875 13.25 4.234375 
Q 6.78125 9.90625 6.78125 20.515625 
Q 6.78125 27.484375 10.78125 32.3125 
Q 14.796875 37.15625 21.921875 38.8125 
z
M 18.3125 54.390625 
Q 18.3125 48.734375 21.84375 45.5625 
Q 25.390625 42.390625 31.78125 42.390625 
Q 38.140625 42.390625 41.71875 45.5625 
Q 45.3125 48.734375 45.3125 54.390625 
Q 45.3125 60.0625 41.71875 63.234375 
Q 38.140625 66.40625 31.78125 66.40625 
Q 25.390625 66.40625 21.84375 63.234375 
Q 18.3125 60.0625 18.3125 54.390625 
z
" id="DejaVuSans-56"/>
      </defs>
      <use transform="translate(0 0.78125)" xlink:href="#DejaVuSans-52"/>
      <use transform="translate(63.623047 0.78125)" xlink:href="#DejaVuSans-56"/>
     </g>
    </g>
    <g id="line2d_26"/>
    <g id="line2d_27">
     <defs>
      <path d="M 0 3.741657 
C 0.992299 3.741657 1.94409 3.347413 2.645751 2.645751 
C 3.347413 1.94409 3.741657 0.992299 3.741657 0 
C 3.741657 -0.992299 3.347413 -1.94409 2.645751 -2.645751 
C 1.94409 -3.347413 0.992299 -3.741657 0 -3.741657 
C -0.992299 -3.741657 -1.94409 -3.347413 -2.645751 -2.645751 
C -3.347413 -1.94409 -3.741657 -0.992299 -3.741657 0 
C -3.741657 0.992299 -3.347413 1.94409 -2.645751 2.645751 
C -1.94409 3.347413 -0.992299 3.741657 0 3.741657 
z
" id="m9be4dc8adc" style="stroke:#000000;stroke-opacity:0.6;"/>
     </defs>
     <g>
      <use style="fill-opacity:0.6;stroke:#000000;stroke-opacity:0.6;" x="32.210938" xlink:href="#m9be4dc8adc" y="94.129063"/>
     </g>
    </g>
    <g id="text_25">
     <!-- $\mathdefault{56}$ -->
     <g transform="translate(50.210938 97.629063)scale(0.1 -0.1)">
      <defs>
       <path d="M 33.015625 40.375 
Q 26.375 40.375 22.484375 35.828125 
Q 18.609375 31.296875 18.609375 23.390625 
Q 18.609375 15.53125 22.484375 10.953125 
Q 26.375 6.390625 33.015625 6.390625 
Q 39.65625 6.390625 43.53125 10.953125 
Q 47.40625 15.53125 47.40625 23.390625 
Q 47.40625 31.296875 43.53125 35.828125 
Q 39.65625 40.375 33.015625 40.375 
z
M 52.59375 71.296875 
L 52.59375 62.3125 
Q 48.875 64.0625 45.09375 64.984375 
Q 41.3125 65.921875 37.59375 65.921875 
Q 27.828125 65.921875 22.671875 59.328125 
Q 17.53125 52.734375 16.796875 39.40625 
Q 19.671875 43.65625 24.015625 45.921875 
Q 28.375 48.1875 33.59375 48.1875 
Q 44.578125 48.1875 50.953125 41.515625 
Q 57.328125 34.859375 57.328125 23.390625 
Q 57.328125 12.15625 50.6875 5.359375 
Q 44.046875 -1.421875 33.015625 -1.421875 
Q 20.359375 -1.421875 13.671875 8.265625 
Q 6.984375 17.96875 6.984375 36.375 
Q 6.984375 53.65625 15.1875 63.9375 
Q 23.390625 74.21875 37.203125 74.21875 
Q 40.921875 74.21875 44.703125 73.484375 
Q 48.484375 72.75 52.59375 71.296875 
z
" id="DejaVuSans-54"/>
      </defs>
      <use transform="translate(0 0.78125)" xlink:href="#DejaVuSans-53"/>
      <use transform="translate(63.623047 0.78125)" xlink:href="#DejaVuSans-54"/>
     </g>
    </g>
    <g id="line2d_28"/>
    <g id="line2d_29">
     <defs>
      <path d="M 0 4 
C 1.060812 4 2.078319 3.578535 2.828427 2.828427 
C 3.578535 2.078319 4 1.060812 4 0 
C 4 -1.060812 3.578535 -2.078319 2.828427 -2.828427 
C 2.078319 -3.578535 1.060812 -4 0 -4 
C -1.060812 -4 -2.078319 -3.578535 -2.828427 -2.828427 
C -3.578535 -2.078319 -4 -1.060812 -4 0 
C -4 1.060812 -3.578535 2.078319 -2.828427 2.828427 
C -2.078319 3.578535 -1.060812 4 0 4 
z
" id="m17796b16c9" style="stroke:#000000;stroke-opacity:0.6;"/>
     </defs>
     <g>
      <use style="fill-opacity:0.6;stroke:#000000;stroke-opacity:0.6;" x="32.210938" xlink:href="#m17796b16c9" y="108.807188"/>
     </g>
    </g>
    <g id="text_26">
     <!-- $\mathdefault{64}$ -->
     <g transform="translate(50.210938 112.307188)scale(0.1 -0.1)">
      <use transform="translate(0 0.78125)" xlink:href="#DejaVuSans-54"/>
      <use transform="translate(63.623047 0.78125)" xlink:href="#DejaVuSans-52"/>
     </g>
    </g>
    <g id="line2d_30"/>
    <g id="line2d_31">
     <defs>
      <path d="M 0 4.242641 
C 1.125161 4.242641 2.204391 3.795609 3 3 
C 3.795609 2.204391 4.242641 1.125161 4.242641 0 
C 4.242641 -1.125161 3.795609 -2.204391 3 -3 
C 2.204391 -3.795609 1.125161 -4.242641 0 -4.242641 
C -1.125161 -4.242641 -2.204391 -3.795609 -3 -3 
C -3.795609 -2.204391 -4.242641 -1.125161 -4.242641 0 
C -4.242641 1.125161 -3.795609 2.204391 -3 3 
C -2.204391 3.795609 -1.125161 4.242641 0 4.242641 
z
" id="mc3590e539f" style="stroke:#000000;stroke-opacity:0.6;"/>
     </defs>
     <g>
      <use style="fill-opacity:0.6;stroke:#000000;stroke-opacity:0.6;" x="32.210938" xlink:href="#mc3590e539f" y="123.485313"/>
     </g>
    </g>
    <g id="text_27">
     <!-- $\mathdefault{72}$ -->
     <g transform="translate(50.210938 126.985313)scale(0.1 -0.1)">
      <use transform="translate(0 0.78125)" xlink:href="#DejaVuSans-55"/>
      <use transform="translate(63.623047 0.78125)" xlink:href="#DejaVuSans-50"/>
     </g>
    </g>
    <g id="line2d_32"/>
    <g id="line2d_33">
     <defs>
      <path d="M 0 4.472136 
C 1.186024 4.472136 2.323632 4.000923 3.162278 3.162278 
C 4.000923 2.323632 4.472136 1.186024 4.472136 0 
C 4.472136 -1.186024 4.000923 -2.323632 3.162278 -3.162278 
C 2.323632 -4.000923 1.186024 -4.472136 0 -4.472136 
C -1.186024 -4.472136 -2.323632 -4.000923 -3.162278 -3.162278 
C -4.000923 -2.323632 -4.472136 -1.186024 -4.472136 0 
C -4.472136 1.186024 -4.000923 2.323632 -3.162278 3.162278 
C -2.323632 4.000923 -1.186024 4.472136 0 4.472136 
z
" id="mff57ccc4e5" style="stroke:#000000;stroke-opacity:0.6;"/>
     </defs>
     <g>
      <use style="fill-opacity:0.6;stroke:#000000;stroke-opacity:0.6;" x="32.210938" xlink:href="#mff57ccc4e5" y="138.163438"/>
     </g>
    </g>
    <g id="text_28">
     <!-- $\mathdefault{80}$ -->
     <g transform="translate(50.210938 141.663438)scale(0.1 -0.1)">
      <use transform="translate(0 0.78125)" xlink:href="#DejaVuSans-56"/>
      <use transform="translate(63.623047 0.78125)" xlink:href="#DejaVuSans-48"/>
     </g>
    </g>
    <g id="line2d_34"/>
    <g id="line2d_35">
     <defs>
      <path d="M 0 4.690416 
C 1.243913 4.690416 2.437046 4.196204 3.316625 3.316625 
C 4.196204 2.437046 4.690416 1.243913 4.690416 0 
C 4.690416 -1.243913 4.196204 -2.437046 3.316625 -3.316625 
C 2.437046 -4.196204 1.243913 -4.690416 0 -4.690416 
C -1.243913 -4.690416 -2.437046 -4.196204 -3.316625 -3.316625 
C -4.196204 -2.437046 -4.690416 -1.243913 -4.690416 0 
C -4.690416 1.243913 -4.196204 2.437046 -3.316625 3.316625 
C -2.437046 4.196204 -1.243913 4.690416 0 4.690416 
z
" id="mdd121678e3" style="stroke:#000000;stroke-opacity:0.6;"/>
     </defs>
     <g>
      <use style="fill-opacity:0.6;stroke:#000000;stroke-opacity:0.6;" x="32.210938" xlink:href="#mdd121678e3" y="152.841563"/>
     </g>
    </g>
    <g id="text_29">
     <!-- $\mathdefault{88}$ -->
     <g transform="translate(50.210938 156.341563)scale(0.1 -0.1)">
      <use transform="translate(0 0.78125)" xlink:href="#DejaVuSans-56"/>
      <use transform="translate(63.623047 0.78125)" xlink:href="#DejaVuSans-56"/>
     </g>
    </g>
    <g id="line2d_36"/>
    <g id="line2d_37">
     <defs>
      <path d="M 0 4.898979 
C 1.299225 4.898979 2.545411 4.382792 3.464102 3.464102 
C 4.382792 2.545411 4.898979 1.299225 4.898979 0 
C 4.898979 -1.299225 4.382792 -2.545411 3.464102 -3.464102 
C 2.545411 -4.382792 1.299225 -4.898979 0 -4.898979 
C -1.299225 -4.898979 -2.545411 -4.382792 -3.464102 -3.464102 
C -4.382792 -2.545411 -4.898979 -1.299225 -4.898979 0 
C -4.898979 1.299225 -4.382792 2.545411 -3.464102 3.464102 
C -2.545411 4.382792 -1.299225 4.898979 0 4.898979 
z
" id="mbc53476820" style="stroke:#000000;stroke-opacity:0.6;"/>
     </defs>
     <g>
      <use style="fill-opacity:0.6;stroke:#000000;stroke-opacity:0.6;" x="32.210938" xlink:href="#mbc53476820" y="167.519688"/>
     </g>
    </g>
    <g id="text_30">
     <!-- $\mathdefault{96}$ -->
     <g transform="translate(50.210938 171.019688)scale(0.1 -0.1)">
      <defs>
       <path d="M 10.984375 1.515625 
L 10.984375 10.5 
Q 14.703125 8.734375 18.5 7.8125 
Q 22.3125 6.890625 25.984375 6.890625 
Q 35.75 6.890625 40.890625 13.453125 
Q 46.046875 20.015625 46.78125 33.40625 
Q 43.953125 29.203125 39.59375 26.953125 
Q 35.25 24.703125 29.984375 24.703125 
Q 19.046875 24.703125 12.671875 31.3125 
Q 6.296875 37.9375 6.296875 49.421875 
Q 6.296875 60.640625 12.9375 67.421875 
Q 19.578125 74.21875 30.609375 74.21875 
Q 43.265625 74.21875 49.921875 64.515625 
Q 56.59375 54.828125 56.59375 36.375 
Q 56.59375 19.140625 48.40625 8.859375 
Q 40.234375 -1.421875 26.421875 -1.421875 
Q 22.703125 -1.421875 18.890625 -0.6875 
Q 15.09375 0.046875 10.984375 1.515625 
z
M 30.609375 32.421875 
Q 37.25 32.421875 41.125 36.953125 
Q 45.015625 41.5 45.015625 49.421875 
Q 45.015625 57.28125 41.125 61.84375 
Q 37.25 66.40625 30.609375 66.40625 
Q 23.96875 66.40625 20.09375 61.84375 
Q 16.21875 57.28125 16.21875 49.421875 
Q 16.21875 41.5 20.09375 36.953125 
Q 23.96875 32.421875 30.609375 32.421875 
z
" id="DejaVuSans-57"/>
      </defs>
      <use transform="translate(0 0.78125)" xlink:href="#DejaVuSans-57"/>
      <use transform="translate(63.623047 0.78125)" xlink:href="#DejaVuSans-54"/>
     </g>
    </g>
   </g>
  </g>
 </g>
 <defs>
  <clipPath id="p670317ccbc">
   <rect height="217.44" width="217.44" x="7.2" y="22.318125"/>
  </clipPath>
 </defs>
</svg>
